<svg xmlns="http://www.w3.org/2000/svg" width="17.394" height="13.237" viewBox="0 0 17.394 13.237">
  <g id="envelope" transform="translate(0 -57.75)">
    <g id="Сгруппировать_2" data-name="Сгруппировать 2" transform="translate(0 57.75)">
      <path id="Контур_12" data-name="Контур 12" d="M15.271,57.75H2.127A2.129,2.129,0,0,0,0,59.877V68.86a2.129,2.129,0,0,0,2.127,2.127h13.14a2.129,2.129,0,0,0,2.127-2.127v-8.98A2.127,2.127,0,0,0,15.271,57.75Zm1.155,11.11a1.157,1.157,0,0,1-1.155,1.155H2.127A1.157,1.157,0,0,1,.972,68.86v-8.98a1.157,1.157,0,0,1,1.155-1.155h13.14a1.157,1.157,0,0,1,1.155,1.155v8.98Z" transform="translate(0 -57.75)" fill="#bc1713"/>
      <path id="Контур_13" data-name="Контур 13" d="M64.716,113.568l4.254-3.815a.487.487,0,0,0-.651-.723L62.452,114.3l-1.144-1.022s-.007-.007-.007-.011a.722.722,0,0,0-.079-.068l-4.657-4.168a.487.487,0,0,0-.648.727l4.3,3.847-4.286,4.013a.488.488,0,0,0-.022.687.5.5,0,0,0,.356.155.487.487,0,0,0,.331-.13l4.351-4.071,1.18,1.055a.485.485,0,0,0,.648,0l1.213-1.087,4.326,4.11a.487.487,0,0,0,.687-.018.488.488,0,0,0-.018-.687Z" transform="translate(-53.746 -107.061)" fill="#bc1713"/>
    </g>
  </g>
</svg>
