<svg xmlns="http://www.w3.org/2000/svg" width="15.011" height="15.011" viewBox="0 0 15.011 15.011">
  <path id="Контур_1" data-name="Контур 1" d="M10.789,15.011a4.182,4.182,0,0,1-1.435-.256A15.3,15.3,0,0,1,3.8,11.213,15.3,15.3,0,0,1,.257,5.657,4.152,4.152,0,0,1,.045,3.617,4.258,4.258,0,0,1,2.233.5a4.18,4.18,0,0,1,2-.5.469.469,0,0,1,.459.371l.736,3.436a.469.469,0,0,1-.127.43L4.044,5.495a12.347,12.347,0,0,0,5.472,5.472l1.258-1.258a.469.469,0,0,1,.43-.127l3.436.736a.469.469,0,0,1,.371.459,4.18,4.18,0,0,1-.5,2,4.258,4.258,0,0,1-3.117,2.188,4.173,4.173,0,0,1-.606.045ZM3.86.959A3.287,3.287,0,0,0,1.139,5.337a14.228,14.228,0,0,0,8.536,8.536,3.287,3.287,0,0,0,4.379-2.721l-2.8-.6L9.944,11.867a.469.469,0,0,1-.531.093A13.282,13.282,0,0,1,3.052,5.6a.469.469,0,0,1,.093-.531L4.459,3.754Z" transform="translate(0 0)" fill="#bc1713"/>
</svg>
