<svg xmlns="http://www.w3.org/2000/svg" width="18.668" height="17.681" viewBox="0 0 18.668 17.681">
  <path id="Контур_10" data-name="Контур 10" d="M19.668,6.6V5.126a.6.6,0,0,0-.068-.259h0L18.081,1.978A1.88,1.88,0,0,0,16.407,1H4.261a1.88,1.88,0,0,0-1.674.978L1.068,4.86h0A.6.6,0,0,0,1,5.126V6.6A2.623,2.623,0,0,0,2.245,8.8v8.7H1.622a.59.59,0,1,0,0,1.179H19.046a.59.59,0,1,0,0-1.179h-.622V8.8a2.623,2.623,0,0,0,1.245-2.2Zm-1.245,0a1.558,1.558,0,0,1-3.111,0V5.715h3.111ZM2.245,6.6V5.715H5.356V6.6A1.516,1.516,0,0,1,3.8,8.072,1.516,1.516,0,0,1,2.245,6.6ZM6.6,5.715H9.712V6.6A1.558,1.558,0,0,1,6.6,6.6Zm4.356,0h3.111V6.6a1.558,1.558,0,0,1-3.111,0ZM3.7,2.5a.627.627,0,0,1,.56-.324H16.407a.627.627,0,0,1,.56.324l1.07,2.033H2.63Zm8.5,15H8.467V13.966a.606.606,0,0,1,.622-.589h2.489a.606.606,0,0,1,.622.589Zm4.978,0H13.445V13.966A1.819,1.819,0,0,0,11.579,12.2H9.089a1.819,1.819,0,0,0-1.867,1.768V17.5H3.489V9.251a2.774,2.774,0,0,0,.311.029A2.859,2.859,0,0,0,5.978,8.267a2.9,2.9,0,0,0,4.356,0,2.9,2.9,0,0,0,4.356,0,2.863,2.863,0,0,0,2.178.984,2.779,2.779,0,0,0,.311,0Z" transform="translate(-1 -1)" fill="#bc1713"/>
</svg>
