<svg xmlns="http://www.w3.org/2000/svg" width="16.391" height="17.897" viewBox="0 0 16.391 17.897">
  <g id="viber_3_" data-name="viber (3)" transform="translate(-1.38 0.013)">
    <path id="Контур_2" data-name="Контур 2" d="M17.6,10.347c.533-4.49-.256-7.325-1.681-8.607h0c-2.3-2.19-10.064-2.514-12.815.1C1.873,3.115,1.438,4.991,1.39,7.312s-.1,6.673,3.949,7.853h0l0,1.8s-.028.73.439.877c.533.173.775-.166,2.434-2.148A15.183,15.183,0,0,0,13.36,15.3c.56-.188,3.73-.607,4.243-4.957ZM8.486,14.428s-1.756,2.19-2.3,2.758c-.179.185-.375.168-.372-.2,0-.241.013-2.992.013-2.992-3.437-.985-3.234-4.689-3.2-6.627s.392-3.526,1.438-4.6C6.48.51,13.287,1.016,15.022,2.646c2.12,1.88,1.366,7.19,1.37,7.371-.436,3.631-3,3.862-3.477,4.019a14.007,14.007,0,0,1-4.429.392Z" transform="translate(0 0)" fill="#bc1713"/>
    <path id="Контур_3" data-name="Контур 3" d="M12.148,4.3a.226.226,0,0,0,0,.451c2.225.017,4.058,1.568,4.078,4.414a.218.218,0,1,0,.436,0h0c-.024-3.066-2.025-4.844-4.513-4.861Z" transform="translate(-2.691 -1.099)" fill="#bc1713"/>
    <path id="Контур_4" data-name="Контур 4" d="M15.207,9.091a.218.218,0,1,0,.436.01,3.018,3.018,0,0,0-2.965-3.23.226.226,0,0,0-.031.451,2.572,2.572,0,0,1,2.559,2.769Z" transform="translate(-2.822 -1.5)" fill="#bc1713"/>
    <path id="Контур_5" data-name="Контур 5" d="M13.152,10.789a.688.688,0,0,0-.9.129l-.324.419a.58.58,0,0,1-.472.185A4.324,4.324,0,0,1,8.612,8.579.626.626,0,0,1,8.79,8.09L9.2,7.755a.746.746,0,0,0,.124-.929,9.682,9.682,0,0,0-1.11-1.6A.6.6,0,0,0,7.4,5.086H7.4c-.644.377-1.35,1.083-1.124,1.809a12.189,12.189,0,0,0,3.349,5.052,12.878,12.878,0,0,0,3.45,1.973l.007.01c.7.234,1.384-.5,1.749-1.163v-.005a.639.639,0,0,0-.128-.824,8.784,8.784,0,0,0-1.547-1.149Z" transform="translate(-1.236 -1.276)" fill="#bc1713"/>
    <path id="Контур_6" data-name="Контур 6" d="M13.1,7.95c.716.042,1.063.416,1.1,1.184a.218.218,0,1,0,.436-.021A1.5,1.5,0,0,0,13.123,7.5.226.226,0,0,0,13.1,7.95Z" transform="translate(-2.936 -1.915)" fill="#bc1713"/>
  </g>
</svg>
