<svg id="whatsapp_3_" data-name="whatsapp (3)" xmlns="http://www.w3.org/2000/svg" width="17.196" height="17.196" viewBox="0 0 17.196 17.196">
  <path id="Контур_7" data-name="Контур 7" d="M8.6,0h0A8.593,8.593,0,0,0,1.637,13.638L.565,16.832l3.3-1.056A8.6,8.6,0,1,0,8.6,0Z" fill="#bc1713"/>
  <path id="Контур_8" data-name="Контур 8" d="M117.265,125.3a2.426,2.426,0,0,1-1.687,1.213c-.449.1-1.036.172-3.011-.647a10.771,10.771,0,0,1-4.281-3.781,4.911,4.911,0,0,1-1.021-2.593,2.745,2.745,0,0,1,.879-2.093,1.249,1.249,0,0,1,.879-.308c.106,0,.2.005.288.01.253.011.379.026.546.425.207.5.713,1.734.773,1.86a.512.512,0,0,1,.037.465,1.486,1.486,0,0,1-.278.394c-.127.146-.247.258-.374.415-.116.136-.247.283-.1.535a7.632,7.632,0,0,0,1.4,1.734,6.322,6.322,0,0,0,2.016,1.243.544.544,0,0,0,.606-.1,10.4,10.4,0,0,0,.672-.89.48.48,0,0,1,.617-.187c.232.081,1.461.688,1.713.814s.419.187.48.293A2.141,2.141,0,0,1,117.265,125.3Z" transform="translate(-103.661 -113.155)" fill="#fafafa"/>
</svg>
